<svg fill="#000000" height="200px" width="200px" version="1.1" id="Layer_1" xmlns="http://www.w3.org/2000/svg" xmlns:xlink="http://www.w3.org/1999/xlink" viewBox="0 0 512 512" xml:space="preserve"><g id="SVGRepo_bgCarrier" stroke-width="0"></g><g id="SVGRepo_tracerCarrier" stroke-linecap="round" stroke-linejoin="round"></g><g id="SVGRepo_iconCarrier"> <g> <g> <path d="M466.592,261.096l25.482-25.482l-25.103-25.103l-25.482,25.482v-58.621c26.55-7.708,46.02-32.235,46.02-61.238V63.869 h-127.54v52.265c0,29.003,19.47,53.528,46.02,61.238v58.622l-25.482-25.482l-25.103,25.103l25.482,25.482H273.75v-24.3 l50.585-50.586l-25.103-25.103L273.75,186.59v-50.307c26.55-7.71,46.02-32.235,46.02-61.238V22.78H192.231v52.265 c0,29.003,19.47,53.528,46.02,61.238v50.307l-25.482-25.482l-25.103,25.103l50.585,50.586v24.3H131.114l25.482-25.482 l-25.103-25.103l-25.482,25.482v-58.622c26.551-7.708,46.02-32.235,46.02-61.238V63.869H24.491v52.265 c0,29.003,19.47,53.528,46.02,61.238v58.621l-25.482-25.482l-25.103,25.103l25.482,25.482H0l11.983,140.544 c1.913,24.48,19.396,44.549,42.189,50.744v36.837h35.501v-34.844h332.655v34.844h35.501v-36.837 c22.793-6.195,40.276-26.263,42.189-50.744L512,261.096H466.592z M395.47,116.134V99.37h56.539v16.765 c0,15.587-12.681,28.269-28.269,28.269S395.47,131.723,395.47,116.134z M227.731,75.046V58.281h56.537v16.765 c0,15.587-12.681,28.269-28.269,28.269S227.731,90.633,227.731,75.046z M59.992,116.134V99.37h56.539v16.765 c0,15.587-12.682,28.269-28.269,28.269C72.674,144.403,59.992,131.723,59.992,116.134z M464.638,398.699l-0.012,0.147 c-0.864,11.232-10.366,20.031-21.632,20.031H69.005c-11.266,0-20.767-8.798-21.632-20.031l-8.717-102.249h434.687L464.638,398.699 z"></path> </g> </g> <g> <g> <circle cx="380.248" cy="357.742" r="17.75"></circle> </g> </g> <g> <g> <circle cx="131.743" cy="357.742" r="17.75"></circle> </g> </g> <g> <g> <circle cx="255.996" cy="357.742" r="17.75"></circle> </g> </g> </g></svg>