<?xml version="1.0" encoding="iso-8859-1"?>
<!-- Uploaded to: SVG Repo, www.svgrepo.com, Generator: SVG Repo Mixer Tools -->
<svg fill="#000000" height="800px" width="800px" version="1.1" id="Capa_1" xmlns="http://www.w3.org/2000/svg" xmlns:xlink="http://www.w3.org/1999/xlink" 
	 viewBox="0 0 489.714 489.714" xml:space="preserve">
<g>
	<g>
		<g>
			<path d="M468.493,240.568c-11.5-1-20.9,7.3-21.9,18.8c-6.3,92.8-75.1,169.9-166.8,186.6c-79.4,14.4-158.7-18.7-203.7-83.3
				l43.1,6.2c10.4,2.1,20.9-6.3,21.9-16.7c1-11.5-6.3-21.9-17.7-22.9l-85.5-12.6c-11.5-1-20.9,6.3-22.9,17.7l-12.5,85.5
				c-1,11.5,6.3,21.9,17.7,22.9c13.4,1.1,21.9-7.3,24-17.7l4.5-31.3c94.9,117.8,223.8,94.9,238.4,92.8
				c109.5-19.8,192.9-112.6,200.2-224.1C488.293,250.968,479.993,241.568,468.493,240.568z"/>
			<path d="M471.593,48.768c-11.5-1-20.9,6.3-22.9,17.7l-5.2,36.7c-54.4-76.2-148.8-116.3-244-99.3
				c-109.4,19.8-191.8,111.6-199.1,224.2c-1,11.5,7.3,20.9,19.8,21.9c10.4,0,18.8-8.3,19.8-19.8c6.3-92.8,75.1-169.9,166.8-186.6
				c80.7-14.5,159.8,19.9,204.4,84.6l-37.6-5.4c-11.5-1-21.9,6.3-22.9,17.7c-1,10.4,6.3,20.9,17.7,21.9l85.5,12.5
				c14.1,0.6,21.9-7.3,22.9-17.7l12.5-85.5C490.393,60.168,483.093,49.768,471.593,48.768z"/>
		</g>
		<g>
			<g>
				<path d="M226.993,310.268h-82.1c-5.4,0-10.3-3.3-12.4-8.3c-2.1-5-1-10.8,2.8-14.7l61.6-62.6c2.5-3.6,3.9-7.8,3.9-12.2
					c0-11.7-9.5-21.2-21.2-21.2s-21.2,9.5-21.2,21.2c0,7.4-6,13.5-13.5,13.5c-7.4,0-13.5-6-13.5-13.5c0-26.5,21.6-48.1,48.1-48.1
					s48.1,21.6,48.1,48.1c0,10.6-3.4,20.7-9.8,29.2c-0.3,0.5-0.7,0.9-1.1,1.3l-39.7,40.3h49.9c7.4,0,13.5,6,13.5,13.5
					S234.493,310.268,226.993,310.268z"/>
			</g>
			<g>
				<path d="M321.993,310.268c-7.4,0-13.5-6-13.5-13.5v-20.2h-57.3c-5.2,0-10-3-12.2-7.8c-2.2-4.7-1.5-10.3,1.8-14.3l70.8-85.1
					c3.6-4.4,9.6-6,15-4.1c5.3,1.9,8.9,7,8.9,12.7v71.6h9.4c7.4,0,13.5,6,13.5,13.5c0,7.4-6,13.5-13.5,13.5h-9.4v20.2
					C335.493,304.268,329.393,310.268,321.993,310.268z M279.893,249.568h28.6v-34.3L279.893,249.568z"/>
			</g>
		</g>
	</g>
</g>
</svg>